<mxfile host="Electron" agent="Mozilla/5.0 (Windows NT 10.0; Win64; x64) AppleWebKit/537.36 (KHTML, like Gecko) draw.io/28.0.4 Chrome/138.0.7204.97 Electron/37.2.1 Safari/537.36" version="28.0.4">
  <diagram name="第 1 页" id="ymiQxCE4CMMYkpq1hRs4">
    <mxGraphModel dx="1213" dy="828" grid="1" gridSize="10" guides="1" tooltips="1" connect="1" arrows="1" fold="1" page="1" pageScale="1" pageWidth="827" pageHeight="1169" math="0" shadow="0">
      <root>
        <mxCell id="0" />
        <mxCell id="1" parent="0" />
        <mxCell id="zUsM1njh_Pqi0n2tcOYL-3" style="edgeStyle=orthogonalEdgeStyle;rounded=0;orthogonalLoop=1;jettySize=auto;html=1;entryX=0.5;entryY=0;entryDx=0;entryDy=0;" parent="1" source="NgkbhRZgMgy5HNp821UR-1" target="zUsM1njh_Pqi0n2tcOYL-2" edge="1">
          <mxGeometry relative="1" as="geometry" />
        </mxCell>
        <mxCell id="NgkbhRZgMgy5HNp821UR-1" value="开始" style="rounded=1;whiteSpace=wrap;html=1;" parent="1" vertex="1">
          <mxGeometry x="420" y="20" width="120" height="60" as="geometry" />
        </mxCell>
        <mxCell id="NgkbhRZgMgy5HNp821UR-2" value="结束" style="rounded=1;whiteSpace=wrap;html=1;" parent="1" vertex="1">
          <mxGeometry x="420" y="790" width="120" height="60" as="geometry" />
        </mxCell>
        <mxCell id="zUsM1njh_Pqi0n2tcOYL-6" style="edgeStyle=orthogonalEdgeStyle;rounded=0;orthogonalLoop=1;jettySize=auto;html=1;entryX=0.5;entryY=0;entryDx=0;entryDy=0;" parent="1" source="NgkbhRZgMgy5HNp821UR-3" target="zUsM1njh_Pqi0n2tcOYL-5" edge="1">
          <mxGeometry relative="1" as="geometry" />
        </mxCell>
        <mxCell id="zUsM1njh_Pqi0n2tcOYL-7" style="edgeStyle=orthogonalEdgeStyle;rounded=0;orthogonalLoop=1;jettySize=auto;html=1;entryX=0.5;entryY=0;entryDx=0;entryDy=0;" parent="1" source="NgkbhRZgMgy5HNp821UR-3" target="zUsM1njh_Pqi0n2tcOYL-1" edge="1">
          <mxGeometry relative="1" as="geometry" />
        </mxCell>
        <mxCell id="zUsM1njh_Pqi0n2tcOYL-15" style="edgeStyle=orthogonalEdgeStyle;rounded=0;orthogonalLoop=1;jettySize=auto;html=1;entryX=0.5;entryY=0;entryDx=0;entryDy=0;" parent="1" source="NgkbhRZgMgy5HNp821UR-3" target="zUsM1njh_Pqi0n2tcOYL-14" edge="1">
          <mxGeometry relative="1" as="geometry" />
        </mxCell>
        <mxCell id="NgkbhRZgMgy5HNp821UR-3" value="功能选择" style="rhombus;whiteSpace=wrap;html=1;" parent="1" vertex="1">
          <mxGeometry x="440" y="220" width="80" height="80" as="geometry" />
        </mxCell>
        <mxCell id="zUsM1njh_Pqi0n2tcOYL-21" style="edgeStyle=orthogonalEdgeStyle;rounded=0;orthogonalLoop=1;jettySize=auto;html=1;entryX=0.5;entryY=0;entryDx=0;entryDy=0;" parent="1" source="zUsM1njh_Pqi0n2tcOYL-1" target="zUsM1njh_Pqi0n2tcOYL-20" edge="1">
          <mxGeometry relative="1" as="geometry" />
        </mxCell>
        <mxCell id="zUsM1njh_Pqi0n2tcOYL-1" value="单车供需情况查看" style="rounded=0;whiteSpace=wrap;html=1;" parent="1" vertex="1">
          <mxGeometry x="620" y="340" width="120" height="60" as="geometry" />
        </mxCell>
        <mxCell id="zUsM1njh_Pqi0n2tcOYL-4" style="edgeStyle=orthogonalEdgeStyle;rounded=0;orthogonalLoop=1;jettySize=auto;html=1;entryX=0.5;entryY=0;entryDx=0;entryDy=0;" parent="1" source="zUsM1njh_Pqi0n2tcOYL-2" target="NgkbhRZgMgy5HNp821UR-3" edge="1">
          <mxGeometry relative="1" as="geometry" />
        </mxCell>
        <mxCell id="zUsM1njh_Pqi0n2tcOYL-2" value="地图实时信息全览" style="rounded=0;whiteSpace=wrap;html=1;" parent="1" vertex="1">
          <mxGeometry x="420" y="130" width="120" height="60" as="geometry" />
        </mxCell>
        <mxCell id="zUsM1njh_Pqi0n2tcOYL-11" style="edgeStyle=orthogonalEdgeStyle;rounded=0;orthogonalLoop=1;jettySize=auto;html=1;entryX=0.5;entryY=0;entryDx=0;entryDy=0;" parent="1" source="zUsM1njh_Pqi0n2tcOYL-5" target="zUsM1njh_Pqi0n2tcOYL-10" edge="1">
          <mxGeometry relative="1" as="geometry" />
        </mxCell>
        <mxCell id="zUsM1njh_Pqi0n2tcOYL-5" value="站点信息查询" style="rounded=0;whiteSpace=wrap;html=1;" parent="1" vertex="1">
          <mxGeometry x="210" y="340" width="120" height="60" as="geometry" />
        </mxCell>
        <mxCell id="zUsM1njh_Pqi0n2tcOYL-22" style="edgeStyle=orthogonalEdgeStyle;rounded=0;orthogonalLoop=1;jettySize=auto;html=1;entryX=0.5;entryY=0;entryDx=0;entryDy=0;exitX=0.5;exitY=1;exitDx=0;exitDy=0;" parent="1" source="zUsM1njh_Pqi0n2tcOYL-8" target="NgkbhRZgMgy5HNp821UR-2" edge="1">
          <mxGeometry relative="1" as="geometry" />
        </mxCell>
        <mxCell id="zUsM1njh_Pqi0n2tcOYL-8" value="查看该站点历史人流量信息" style="rounded=0;whiteSpace=wrap;html=1;" parent="1" vertex="1">
          <mxGeometry x="140" y="585" width="120" height="60" as="geometry" />
        </mxCell>
        <mxCell id="zUsM1njh_Pqi0n2tcOYL-23" style="edgeStyle=orthogonalEdgeStyle;rounded=0;orthogonalLoop=1;jettySize=auto;html=1;entryX=0.5;entryY=0;entryDx=0;entryDy=0;exitX=0.5;exitY=1;exitDx=0;exitDy=0;" parent="1" source="zUsM1njh_Pqi0n2tcOYL-9" target="NgkbhRZgMgy5HNp821UR-2" edge="1">
          <mxGeometry relative="1" as="geometry" />
        </mxCell>
        <mxCell id="zUsM1njh_Pqi0n2tcOYL-9" value="查看该站点预测人流量信息" style="rounded=0;whiteSpace=wrap;html=1;" parent="1" vertex="1">
          <mxGeometry x="274" y="585" width="120" height="60" as="geometry" />
        </mxCell>
        <mxCell id="zUsM1njh_Pqi0n2tcOYL-12" style="edgeStyle=orthogonalEdgeStyle;rounded=0;orthogonalLoop=1;jettySize=auto;html=1;entryX=0.5;entryY=0;entryDx=0;entryDy=0;exitX=0;exitY=0.5;exitDx=0;exitDy=0;" parent="1" source="zUsM1njh_Pqi0n2tcOYL-10" target="zUsM1njh_Pqi0n2tcOYL-8" edge="1">
          <mxGeometry relative="1" as="geometry" />
        </mxCell>
        <mxCell id="zUsM1njh_Pqi0n2tcOYL-13" style="edgeStyle=orthogonalEdgeStyle;rounded=0;orthogonalLoop=1;jettySize=auto;html=1;entryX=0.5;entryY=0;entryDx=0;entryDy=0;exitX=1;exitY=0.5;exitDx=0;exitDy=0;" parent="1" source="zUsM1njh_Pqi0n2tcOYL-10" target="zUsM1njh_Pqi0n2tcOYL-9" edge="1">
          <mxGeometry relative="1" as="geometry" />
        </mxCell>
        <mxCell id="zUsM1njh_Pqi0n2tcOYL-10" value="日期选择" style="rhombus;whiteSpace=wrap;html=1;" parent="1" vertex="1">
          <mxGeometry x="230" y="460" width="80" height="80" as="geometry" />
        </mxCell>
        <mxCell id="zUsM1njh_Pqi0n2tcOYL-17" style="edgeStyle=orthogonalEdgeStyle;rounded=0;orthogonalLoop=1;jettySize=auto;html=1;entryX=0.5;entryY=0;entryDx=0;entryDy=0;" parent="1" source="zUsM1njh_Pqi0n2tcOYL-14" target="zUsM1njh_Pqi0n2tcOYL-16" edge="1">
          <mxGeometry relative="1" as="geometry" />
        </mxCell>
        <mxCell id="zUsM1njh_Pqi0n2tcOYL-14" value="路径导航" style="rounded=0;whiteSpace=wrap;html=1;" parent="1" vertex="1">
          <mxGeometry x="420" y="340" width="120" height="60" as="geometry" />
        </mxCell>
        <mxCell id="zUsM1njh_Pqi0n2tcOYL-19" style="edgeStyle=orthogonalEdgeStyle;rounded=0;orthogonalLoop=1;jettySize=auto;html=1;entryX=0.5;entryY=0;entryDx=0;entryDy=0;" parent="1" source="zUsM1njh_Pqi0n2tcOYL-16" target="zUsM1njh_Pqi0n2tcOYL-18" edge="1">
          <mxGeometry relative="1" as="geometry" />
        </mxCell>
        <mxCell id="zUsM1njh_Pqi0n2tcOYL-16" value="选择起始点及出行方式" style="rounded=0;whiteSpace=wrap;html=1;" parent="1" vertex="1">
          <mxGeometry x="420" y="470" width="120" height="60" as="geometry" />
        </mxCell>
        <mxCell id="zUsM1njh_Pqi0n2tcOYL-24" style="edgeStyle=orthogonalEdgeStyle;rounded=0;orthogonalLoop=1;jettySize=auto;html=1;entryX=0.5;entryY=0;entryDx=0;entryDy=0;" parent="1" source="zUsM1njh_Pqi0n2tcOYL-18" target="NgkbhRZgMgy5HNp821UR-2" edge="1">
          <mxGeometry relative="1" as="geometry" />
        </mxCell>
        <mxCell id="zUsM1njh_Pqi0n2tcOYL-18" value="路径导航详情查看" style="rounded=0;whiteSpace=wrap;html=1;" parent="1" vertex="1">
          <mxGeometry x="420" y="585" width="120" height="60" as="geometry" />
        </mxCell>
        <mxCell id="zUsM1njh_Pqi0n2tcOYL-26" style="edgeStyle=orthogonalEdgeStyle;rounded=0;orthogonalLoop=1;jettySize=auto;html=1;exitX=0.5;exitY=1;exitDx=0;exitDy=0;" parent="1" source="zUsM1njh_Pqi0n2tcOYL-20" target="NgkbhRZgMgy5HNp821UR-2" edge="1">
          <mxGeometry relative="1" as="geometry" />
        </mxCell>
        <mxCell id="zUsM1njh_Pqi0n2tcOYL-20" value="选择站点查看&lt;div&gt;站点附近单车详情&lt;/div&gt;" style="rounded=0;whiteSpace=wrap;html=1;" parent="1" vertex="1">
          <mxGeometry x="620" y="585" width="120" height="60" as="geometry" />
        </mxCell>
      </root>
    </mxGraphModel>
  </diagram>
</mxfile>
